# xmcd CD database file
#
# Track frame offsets:
#	187
#	16612
#	34985
#	51082
#	71820
#	85597
#	108410
#	132765
#	160897
#	187745
#	198810
#
# Disc length: 3235 seconds
#
# Revision: 2
# Processed by: cddbd v1.5PL3 Copyright (c) Steve Scherf et al.
# Submitted via: CDex 1.50
#
DISCID=820ca10b
DTITLE=Cruel Frederick - We Are the Music We Play
DYEAR=1991
DGENRE=Jazz
TTITLE0=Little Rootie Tootie
TTITLE1=We Are the Music We Play
TTITLE2=The Fool and The Jewel
TTITLE3=Reflections
TTITLE4=Blind Man in a Sleigh
TTITLE5=Dee Dee
TTITLE6=Those Dulcet Tones
TTITLE7=Ms. Pines
TTITLE8=Mingus at Moments
TTITLE9=Well, You Needn't
TTITLE10=Extending the Ting
EXTD=YEAR: 1991
EXTT0=
EXTT1=
EXTT2=
EXTT3=
EXTT4=
EXTT5=
EXTT6=
EXTT7=
EXTT8=
EXTT9=
EXTT10=
PLAYORDER=
